<svg viewBox="0 0 472.615 472.615">
<path d="M192.029,226.462v-48.072H76.202v48.072H0v19.692h76.202v48.067h115.827v-48.067h280.587v-19.692H192.029z
		M172.337,274.529H95.894v-76.447h76.442V274.529z"/>
<path d="M362.49,398.284v-48.067H246.663v48.067H0v19.692h246.663v48.072H362.49v-48.072h110.125v-19.692H362.49z
		M342.798,446.356h-76.442v-76.447h76.442V446.356z"/>
<path d="M265.548,54.635V6.567H149.712v48.067H0v19.692h149.712v48.072h115.837V74.327h207.067V54.635H265.548z M245.856,102.707
	h-76.452V26.26h76.452V102.707z"/>
</svg>